# xmcd
#
# Track frame offsets:
# 150
# 19368
# 32185
# 44695
# 57358
# 70809
# 82476
# 94693
# 109321
# 117728
# 127549
# 138004
#
# Disc length: 1985 seconds
#
#
# Revision: 0
# Processed by: cddbd v1.5.1PL2 Copyright (c) Steve Scherf et al.
# Submitted via: FreeRIP 2.944 
#
DISCID=ae07bf0c
DTITLE=Zilo e Zalo - A volta do seresteiro
DYEAR=1900
DGENRE=Sertanejo
TTITLE0=Estória de um assaltante
TTITLE1=Mineiro de monte belo
TTITLE2=Surprêsa cruel
TTITLE3=Pecado mortal
TTITLE4=Moças do interior
TTITLE5=Briguei com ela
TTITLE6=A volta do seresteiro
TTITLE7=Peão pafite
TTITLE8=Falta de sorte
TTITLE9=Novo abrigo
TTITLE10=Parece mentira
TTITLE11=Súplicas perdidas
EXTD=
EXTT0=
EXTT1=
EXTT2=
EXTT3=
EXTT4=
EXTT5=
EXTT6=
EXTT7=
EXTT8=
EXTT9=
EXTT10=
EXTT11=
PLAYORDER=
